<mxfile host="app.diagrams.net" agent="Mozilla/5.0 (Windows NT 10.0; Win64; x64) AppleWebKit/537.36 (KHTML, like Gecko) Chrome/140.0.0.0 Safari/537.36" version="28.2.5">
  <diagram name="Страница — 1" id="PXls5SJSJwk0DRB5Pa7l">
    <mxGraphModel dx="1281" dy="562" grid="1" gridSize="10" guides="1" tooltips="1" connect="1" arrows="1" fold="1" page="1" pageScale="1" pageWidth="1169" pageHeight="827" math="0" shadow="0">
      <root>
        <mxCell id="0" />
        <mxCell id="1" parent="0" />
        <mxCell id="UAwi7Pc_nVMUfZAq-AQX-1" value="&lt;p style=&quot;margin:0px;margin-top:4px;text-align:center;&quot;&gt;&lt;i&gt;&amp;lt;&amp;lt;Interface&amp;gt;&amp;gt;&lt;/i&gt;&lt;br&gt;&lt;b&gt;Handler&lt;/b&gt;&lt;/p&gt;&lt;p style=&quot;margin:0px;margin-top:4px;text-align:center;&quot;&gt;&lt;b&gt;(CreditRequestHandler)&lt;/b&gt;&lt;/p&gt;&lt;hr size=&quot;1&quot; style=&quot;border-style:solid;&quot;&gt;&lt;p style=&quot;margin:0px;margin-left:4px;&quot;&gt;+ handlerRequest(CreditRequest request);&lt;br&gt;+ setNext(CreditRequestHandler next);&lt;/p&gt;" style="verticalAlign=top;align=left;overflow=fill;html=1;whiteSpace=wrap;" vertex="1" parent="1">
          <mxGeometry x="480" y="160" width="200" height="150" as="geometry" />
        </mxCell>
        <mxCell id="UAwi7Pc_nVMUfZAq-AQX-2" value="&lt;p style=&quot;margin:0px;margin-top:4px;text-align:center;&quot;&gt;&lt;b&gt;Concrete Handler&lt;/b&gt;&lt;/p&gt;&lt;p style=&quot;margin:0px;margin-top:4px;text-align:center;&quot;&gt;&lt;b&gt;(PersonalConsultantHandler)&lt;/b&gt;&lt;/p&gt;&lt;hr size=&quot;1&quot; style=&quot;border-style:solid;&quot;&gt;&lt;p style=&quot;margin:0px;margin-left:4px;&quot;&gt;+ CreditRequestHandler next;&lt;/p&gt;&lt;hr size=&quot;1&quot; style=&quot;border-style:solid;&quot;&gt;&lt;p style=&quot;margin:0px;margin-left:4px;&quot;&gt;+ handlerRequest(CreditRequest request);&lt;br&gt;+ setNext(CreditRequestHandler next);&lt;/p&gt;" style="verticalAlign=top;align=left;overflow=fill;html=1;whiteSpace=wrap;" vertex="1" parent="1">
          <mxGeometry x="320" y="360" width="200" height="150" as="geometry" />
        </mxCell>
        <mxCell id="UAwi7Pc_nVMUfZAq-AQX-3" value="&lt;p style=&quot;margin:0px;margin-top:4px;text-align:center;&quot;&gt;&lt;b&gt;Concrete Handler&lt;/b&gt;&lt;/p&gt;&lt;p style=&quot;margin:0px;margin-top:4px;text-align:center;&quot;&gt;&lt;b&gt;(ConsultantForSmeHandler)&lt;/b&gt;&lt;/p&gt;&lt;hr size=&quot;1&quot; style=&quot;border-style:solid;&quot;&gt;&lt;p style=&quot;margin:0px;margin-left:4px;&quot;&gt;+ CreditRequestHandler next;&lt;/p&gt;&lt;hr size=&quot;1&quot; style=&quot;border-style:solid;&quot;&gt;&lt;p style=&quot;margin:0px;margin-left:4px;&quot;&gt;+ handlerRequest(CreditRequest request);&lt;br&gt;+ setNext(CreditRequestHandler next);&lt;/p&gt;" style="verticalAlign=top;align=left;overflow=fill;html=1;whiteSpace=wrap;" vertex="1" parent="1">
          <mxGeometry x="640" y="360" width="200" height="150" as="geometry" />
        </mxCell>
        <mxCell id="UAwi7Pc_nVMUfZAq-AQX-4" value="&lt;p style=&quot;margin:0px;margin-top:4px;text-align:center;&quot;&gt;&lt;b&gt;CreditRequest&lt;/b&gt;&lt;/p&gt;&lt;hr size=&quot;1&quot; style=&quot;border-style:solid;&quot;&gt;&lt;p style=&quot;margin:0px;margin-left:4px;&quot;&gt;+ CreditType type;&lt;/p&gt;&lt;hr size=&quot;1&quot; style=&quot;border-style:solid;&quot;&gt;&lt;p style=&quot;margin:0px;margin-left:4px;&quot;&gt;+ CreditRequest(CreditType type);&lt;br&gt;+ getCreditType();&lt;/p&gt;" style="verticalAlign=top;align=left;overflow=fill;html=1;whiteSpace=wrap;" vertex="1" parent="1">
          <mxGeometry x="200" y="80" width="200" height="150" as="geometry" />
        </mxCell>
        <mxCell id="UAwi7Pc_nVMUfZAq-AQX-5" style="edgeStyle=orthogonalEdgeStyle;rounded=0;orthogonalLoop=1;jettySize=auto;html=1;exitX=0.5;exitY=1;exitDx=0;exitDy=0;" edge="1" parent="1" source="UAwi7Pc_nVMUfZAq-AQX-4" target="UAwi7Pc_nVMUfZAq-AQX-4">
          <mxGeometry relative="1" as="geometry" />
        </mxCell>
        <mxCell id="UAwi7Pc_nVMUfZAq-AQX-6" value="Client" style="html=1;whiteSpace=wrap;" vertex="1" parent="1">
          <mxGeometry x="520" y="40" width="120" height="50" as="geometry" />
        </mxCell>
        <mxCell id="UAwi7Pc_nVMUfZAq-AQX-7" value="Use" style="endArrow=open;endSize=12;dashed=1;html=1;rounded=0;exitX=0.5;exitY=1;exitDx=0;exitDy=0;entryX=0.5;entryY=0;entryDx=0;entryDy=0;" edge="1" parent="1" source="UAwi7Pc_nVMUfZAq-AQX-6" target="UAwi7Pc_nVMUfZAq-AQX-1">
          <mxGeometry width="160" relative="1" as="geometry">
            <mxPoint x="500" y="290" as="sourcePoint" />
            <mxPoint x="660" y="290" as="targetPoint" />
          </mxGeometry>
        </mxCell>
        <mxCell id="UAwi7Pc_nVMUfZAq-AQX-8" value="Use" style="endArrow=open;endSize=12;dashed=1;html=1;rounded=0;exitX=0;exitY=0.5;exitDx=0;exitDy=0;entryX=1;entryY=0.25;entryDx=0;entryDy=0;" edge="1" parent="1" source="UAwi7Pc_nVMUfZAq-AQX-6" target="UAwi7Pc_nVMUfZAq-AQX-4">
          <mxGeometry width="160" relative="1" as="geometry">
            <mxPoint x="500" y="290" as="sourcePoint" />
            <mxPoint x="660" y="290" as="targetPoint" />
          </mxGeometry>
        </mxCell>
        <mxCell id="UAwi7Pc_nVMUfZAq-AQX-9" value="Use" style="endArrow=open;endSize=12;dashed=1;html=1;rounded=0;exitX=0;exitY=0.5;exitDx=0;exitDy=0;entryX=1;entryY=0.75;entryDx=0;entryDy=0;" edge="1" parent="1" source="UAwi7Pc_nVMUfZAq-AQX-1" target="UAwi7Pc_nVMUfZAq-AQX-4">
          <mxGeometry width="160" relative="1" as="geometry">
            <mxPoint x="500" y="290" as="sourcePoint" />
            <mxPoint x="660" y="290" as="targetPoint" />
          </mxGeometry>
        </mxCell>
        <mxCell id="UAwi7Pc_nVMUfZAq-AQX-10" value="" style="endArrow=block;dashed=1;endFill=0;endSize=12;html=1;rounded=0;exitX=0.5;exitY=0;exitDx=0;exitDy=0;entryX=0.25;entryY=1;entryDx=0;entryDy=0;" edge="1" parent="1" source="UAwi7Pc_nVMUfZAq-AQX-2" target="UAwi7Pc_nVMUfZAq-AQX-1">
          <mxGeometry width="160" relative="1" as="geometry">
            <mxPoint x="500" y="290" as="sourcePoint" />
            <mxPoint x="660" y="290" as="targetPoint" />
          </mxGeometry>
        </mxCell>
        <mxCell id="UAwi7Pc_nVMUfZAq-AQX-11" value="" style="endArrow=block;dashed=1;endFill=0;endSize=12;html=1;rounded=0;exitX=0.5;exitY=0;exitDx=0;exitDy=0;entryX=0.75;entryY=1;entryDx=0;entryDy=0;" edge="1" parent="1" source="UAwi7Pc_nVMUfZAq-AQX-3" target="UAwi7Pc_nVMUfZAq-AQX-1">
          <mxGeometry width="160" relative="1" as="geometry">
            <mxPoint x="500" y="290" as="sourcePoint" />
            <mxPoint x="660" y="290" as="targetPoint" />
          </mxGeometry>
        </mxCell>
      </root>
    </mxGraphModel>
  </diagram>
</mxfile>
